<?xml version="1.0" encoding="utf-8" standalone="no"?>
<!DOCTYPE svg PUBLIC "-//W3C//DTD SVG 1.1//EN"
  "http://www.w3.org/Graphics/SVG/1.1/DTD/svg11.dtd">
<svg xmlns:xlink="http://www.w3.org/1999/xlink" width="1080pt" height="360pt" viewBox="0 0 1080 360" xmlns="http://www.w3.org/2000/svg" version="1.1">
 <metadata>
  <rdf:RDF xmlns:dc="http://purl.org/dc/elements/1.1/" xmlns:cc="http://creativecommons.org/ns#" xmlns:rdf="http://www.w3.org/1999/02/22-rdf-syntax-ns#">
   <cc:Work>
    <dc:type rdf:resource="http://purl.org/dc/dcmitype/StillImage"/>
    <dc:date>2022-10-06T17:09:43.508190</dc:date>
    <dc:format>image/svg+xml</dc:format>
    <dc:creator>
     <cc:Agent>
      <dc:title>Matplotlib v3.6.0, https://matplotlib.org/</dc:title>
     </cc:Agent>
    </dc:creator>
   </cc:Work>
  </rdf:RDF>
 </metadata>
 <defs>
  <style type="text/css">*{stroke-linejoin: round; stroke-linecap: butt}</style>
 </defs>
 <g id="figure_1">
  <g id="patch_1">
   <path d="M 0 360 
L 1080 360 
L 1080 0 
L 0 0 
L 0 360 
z
" style="fill: none"/>
  </g>
  <g id="axes_1">
   <g id="patch_2">
    <path d="M 68.93 303.94 
L 279.495 303.94 
L 279.495 30.48 
L 68.93 30.48 
L 68.93 303.94 
z
" style="fill: none"/>
   </g>
   <g id="PolyCollection_1">
    <defs>
     <path id="m6f15ec77f6" d="M 68.93 -212.739184 
L 68.93 -73.172389 
L 79.45825 -80.312746 
L 89.9865 -84.581199 
L 100.51475 -89.036517 
L 111.043 -92.850812 
L 121.57125 -93.912481 
L 132.0995 -99.065166 
L 142.62775 -101.087277 
L 153.156 -102.032549 
L 163.68425 -103.286163 
L 174.2125 -111.9196 
L 184.74075 -119.235073 
L 195.269 -123.72779 
L 205.79725 -130.566355 
L 216.3255 -137.308888 
L 226.85375 -152.758636 
L 237.382 -171.869684 
L 247.91025 -173.134355 
L 258.4385 -174.449623 
L 268.96675 -179.523723 
L 268.96675 -362.252157 
L 268.96675 -362.252157 
L 258.4385 -354.020145 
L 247.91025 -354.634739 
L 237.382 -355.017078 
L 226.85375 -355.934179 
L 216.3255 -349.870914 
L 205.79725 -352.622074 
L 195.269 -352.425354 
L 184.74075 -343.431166 
L 174.2125 -322.980547 
L 163.68425 -312.408976 
L 153.156 -311.446499 
L 142.62775 -309.824073 
L 132.0995 -305.708153 
L 121.57125 -299.317494 
L 111.043 -283.654539 
L 100.51475 -269.200458 
L 89.9865 -243.473258 
L 79.45825 -218.212031 
L 68.93 -212.739184 
z
" style="stroke: #a50026; stroke-opacity: 0.1"/>
    </defs>
    <g clip-path="url(#p6b1d973e8f)">
     <use xlink:href="#m6f15ec77f6" x="0" y="360" style="fill: #a50026; fill-opacity: 0.1; stroke: #a50026; stroke-opacity: 0.1"/>
    </g>
   </g>
   <g id="PolyCollection_2">
    <defs>
     <path id="m0f61b492b3" d="M 68.93 -267.513202 
L 68.93 -62.309996 
L 79.45825 -77.741042 
L 89.9865 -77.542139 
L 100.51475 -113.147242 
L 111.043 -132.507504 
L 121.57125 -153.167232 
L 132.0995 -168.548344 
L 142.62775 -190.268497 
L 153.156 -221.452425 
L 163.68425 -222.804227 
L 174.2125 -252.253483 
L 184.74075 -252.426201 
L 195.269 -284.151074 
L 205.79725 -284.275244 
L 216.3255 -284.305032 
L 226.85375 -290.806248 
L 237.382 -305.288557 
L 247.91025 -305.233084 
L 258.4385 -305.170716 
L 268.96675 -305.2424 
L 268.96675 -313.917465 
L 268.96675 -313.917465 
L 258.4385 -313.837371 
L 247.91025 -313.634627 
L 237.382 -313.444607 
L 226.85375 -323.359861 
L 216.3255 -326.467705 
L 205.79725 -326.137777 
L 195.269 -325.643301 
L 184.74075 -345.74101 
L 174.2125 -344.939865 
L 163.68425 -362.590422 
L 153.156 -360.990491 
L 142.62775 -369.732824 
L 132.0995 -366.562782 
L 121.57125 -361.739703 
L 111.043 -349.503269 
L 100.51475 -330.974442 
L 89.9865 -321.979549 
L 79.45825 -271.567742 
L 68.93 -267.513202 
z
" style="stroke: #313695; stroke-opacity: 0.1"/>
    </defs>
    <g clip-path="url(#p6b1d973e8f)">
     <use xlink:href="#m0f61b492b3" x="0" y="360" style="fill: #313695; fill-opacity: 0.1; stroke: #313695; stroke-opacity: 0.1"/>
    </g>
   </g>
   <g id="matplotlib.axis_1">
    <g id="xtick_1">
     <g id="line2d_1">
      <defs>
       <path id="macc77c1896" d="M 0 0 
L 0 -3.5 
" style="stroke: #000000; stroke-width: 0.8"/>
      </defs>
      <g>
       <use xlink:href="#macc77c1896" x="68.93" y="303.94" style="stroke: #000000; stroke-width: 0.8"/>
      </g>
     </g>
     <g id="text_1">
      <!-- 0 -->
      <g transform="translate(64.47625 318.077812) scale(0.14 -0.14)">
       <defs>
        <path id="DejaVuSans-30" d="M 2034 4250 
Q 1547 4250 1301 3770 
Q 1056 3291 1056 2328 
Q 1056 1369 1301 889 
Q 1547 409 2034 409 
Q 2525 409 2770 889 
Q 3016 1369 3016 2328 
Q 3016 3291 2770 3770 
Q 2525 4250 2034 4250 
z
M 2034 4750 
Q 2819 4750 3233 4129 
Q 3647 3509 3647 2328 
Q 3647 1150 3233 529 
Q 2819 -91 2034 -91 
Q 1250 -91 836 529 
Q 422 1150 422 2328 
Q 422 3509 836 4129 
Q 1250 4750 2034 4750 
z
" transform="scale(0.015625)"/>
       </defs>
       <use xlink:href="#DejaVuSans-30"/>
      </g>
     </g>
    </g>
    <g id="xtick_2">
     <g id="line2d_2">
      <g>
       <use xlink:href="#macc77c1896" x="121.57125" y="303.94" style="stroke: #000000; stroke-width: 0.8"/>
      </g>
     </g>
     <g id="text_2">
      <!-- 5 -->
      <g transform="translate(117.1175 318.077812) scale(0.14 -0.14)">
       <defs>
        <path id="DejaVuSans-35" d="M 691 4666 
L 3169 4666 
L 3169 4134 
L 1269 4134 
L 1269 2991 
Q 1406 3038 1543 3061 
Q 1681 3084 1819 3084 
Q 2600 3084 3056 2656 
Q 3513 2228 3513 1497 
Q 3513 744 3044 326 
Q 2575 -91 1722 -91 
Q 1428 -91 1123 -41 
Q 819 9 494 109 
L 494 744 
Q 775 591 1075 516 
Q 1375 441 1709 441 
Q 2250 441 2565 725 
Q 2881 1009 2881 1497 
Q 2881 1984 2565 2268 
Q 2250 2553 1709 2553 
Q 1456 2553 1204 2497 
Q 953 2441 691 2322 
L 691 4666 
z
" transform="scale(0.015625)"/>
       </defs>
       <use xlink:href="#DejaVuSans-35"/>
      </g>
     </g>
    </g>
    <g id="xtick_3">
     <g id="line2d_3">
      <g>
       <use xlink:href="#macc77c1896" x="174.2125" y="303.94" style="stroke: #000000; stroke-width: 0.8"/>
      </g>
     </g>
     <g id="text_3">
      <!-- 10 -->
      <g transform="translate(165.305 318.077812) scale(0.14 -0.14)">
       <defs>
        <path id="DejaVuSans-31" d="M 794 531 
L 1825 531 
L 1825 4091 
L 703 3866 
L 703 4441 
L 1819 4666 
L 2450 4666 
L 2450 531 
L 3481 531 
L 3481 0 
L 794 0 
L 794 531 
z
" transform="scale(0.015625)"/>
       </defs>
       <use xlink:href="#DejaVuSans-31"/>
       <use xlink:href="#DejaVuSans-30" x="63.623047"/>
      </g>
     </g>
    </g>
    <g id="xtick_4">
     <g id="line2d_4">
      <g>
       <use xlink:href="#macc77c1896" x="226.85375" y="303.94" style="stroke: #000000; stroke-width: 0.8"/>
      </g>
     </g>
     <g id="text_4">
      <!-- 15 -->
      <g transform="translate(217.94625 318.077812) scale(0.14 -0.14)">
       <use xlink:href="#DejaVuSans-31"/>
       <use xlink:href="#DejaVuSans-35" x="63.623047"/>
      </g>
     </g>
    </g>
    <g id="xtick_5">
     <g id="line2d_5">
      <g>
       <use xlink:href="#macc77c1896" x="279.495" y="303.94" style="stroke: #000000; stroke-width: 0.8"/>
      </g>
     </g>
     <g id="text_5">
      <!-- 20 -->
      <g transform="translate(270.5875 318.077812) scale(0.14 -0.14)">
       <defs>
        <path id="DejaVuSans-32" d="M 1228 531 
L 3431 531 
L 3431 0 
L 469 0 
L 469 531 
Q 828 903 1448 1529 
Q 2069 2156 2228 2338 
Q 2531 2678 2651 2914 
Q 2772 3150 2772 3378 
Q 2772 3750 2511 3984 
Q 2250 4219 1831 4219 
Q 1534 4219 1204 4116 
Q 875 4013 500 3803 
L 500 4441 
Q 881 4594 1212 4672 
Q 1544 4750 1819 4750 
Q 2544 4750 2975 4387 
Q 3406 4025 3406 3419 
Q 3406 3131 3298 2873 
Q 3191 2616 2906 2266 
Q 2828 2175 2409 1742 
Q 1991 1309 1228 531 
z
" transform="scale(0.015625)"/>
       </defs>
       <use xlink:href="#DejaVuSans-32"/>
       <use xlink:href="#DejaVuSans-30" x="63.623047"/>
      </g>
     </g>
    </g>
   </g>
   <g id="matplotlib.axis_2">
    <g id="ytick_1">
     <g id="line2d_6">
      <defs>
       <path id="m8a00bbde48" d="M 0 0 
L 3.5 0 
" style="stroke: #000000; stroke-width: 0.8"/>
      </defs>
      <g>
       <use xlink:href="#m8a00bbde48" x="68.93" y="303.94" style="stroke: #000000; stroke-width: 0.8"/>
      </g>
     </g>
     <g id="text_6">
      <!-- 0 -->
      <g transform="translate(56.5225 309.258906) scale(0.14 -0.14)">
       <use xlink:href="#DejaVuSans-30"/>
      </g>
     </g>
    </g>
    <g id="ytick_2">
     <g id="line2d_7">
      <g>
       <use xlink:href="#m8a00bbde48" x="68.93" y="249.248" style="stroke: #000000; stroke-width: 0.8"/>
      </g>
     </g>
     <g id="text_7">
      <!-- 20 -->
      <g transform="translate(47.615 254.566906) scale(0.14 -0.14)">
       <use xlink:href="#DejaVuSans-32"/>
       <use xlink:href="#DejaVuSans-30" x="63.623047"/>
      </g>
     </g>
    </g>
    <g id="ytick_3">
     <g id="line2d_8">
      <g>
       <use xlink:href="#m8a00bbde48" x="68.93" y="194.556" style="stroke: #000000; stroke-width: 0.8"/>
      </g>
     </g>
     <g id="text_8">
      <!-- 40 -->
      <g transform="translate(47.615 199.874906) scale(0.14 -0.14)">
       <defs>
        <path id="DejaVuSans-34" d="M 2419 4116 
L 825 1625 
L 2419 1625 
L 2419 4116 
z
M 2253 4666 
L 3047 4666 
L 3047 1625 
L 3713 1625 
L 3713 1100 
L 3047 1100 
L 3047 0 
L 2419 0 
L 2419 1100 
L 313 1100 
L 313 1709 
L 2253 4666 
z
" transform="scale(0.015625)"/>
       </defs>
       <use xlink:href="#DejaVuSans-34"/>
       <use xlink:href="#DejaVuSans-30" x="63.623047"/>
      </g>
     </g>
    </g>
    <g id="ytick_4">
     <g id="line2d_9">
      <g>
       <use xlink:href="#m8a00bbde48" x="68.93" y="139.864" style="stroke: #000000; stroke-width: 0.8"/>
      </g>
     </g>
     <g id="text_9">
      <!-- 60 -->
      <g transform="translate(47.615 145.182906) scale(0.14 -0.14)">
       <defs>
        <path id="DejaVuSans-36" d="M 2113 2584 
Q 1688 2584 1439 2293 
Q 1191 2003 1191 1497 
Q 1191 994 1439 701 
Q 1688 409 2113 409 
Q 2538 409 2786 701 
Q 3034 994 3034 1497 
Q 3034 2003 2786 2293 
Q 2538 2584 2113 2584 
z
M 3366 4563 
L 3366 3988 
Q 3128 4100 2886 4159 
Q 2644 4219 2406 4219 
Q 1781 4219 1451 3797 
Q 1122 3375 1075 2522 
Q 1259 2794 1537 2939 
Q 1816 3084 2150 3084 
Q 2853 3084 3261 2657 
Q 3669 2231 3669 1497 
Q 3669 778 3244 343 
Q 2819 -91 2113 -91 
Q 1303 -91 875 529 
Q 447 1150 447 2328 
Q 447 3434 972 4092 
Q 1497 4750 2381 4750 
Q 2619 4750 2861 4703 
Q 3103 4656 3366 4563 
z
" transform="scale(0.015625)"/>
       </defs>
       <use xlink:href="#DejaVuSans-36"/>
       <use xlink:href="#DejaVuSans-30" x="63.623047"/>
      </g>
     </g>
    </g>
    <g id="ytick_5">
     <g id="line2d_10">
      <g>
       <use xlink:href="#m8a00bbde48" x="68.93" y="85.172" style="stroke: #000000; stroke-width: 0.8"/>
      </g>
     </g>
     <g id="text_10">
      <!-- 80 -->
      <g transform="translate(47.615 90.490906) scale(0.14 -0.14)">
       <defs>
        <path id="DejaVuSans-38" d="M 2034 2216 
Q 1584 2216 1326 1975 
Q 1069 1734 1069 1313 
Q 1069 891 1326 650 
Q 1584 409 2034 409 
Q 2484 409 2743 651 
Q 3003 894 3003 1313 
Q 3003 1734 2745 1975 
Q 2488 2216 2034 2216 
z
M 1403 2484 
Q 997 2584 770 2862 
Q 544 3141 544 3541 
Q 544 4100 942 4425 
Q 1341 4750 2034 4750 
Q 2731 4750 3128 4425 
Q 3525 4100 3525 3541 
Q 3525 3141 3298 2862 
Q 3072 2584 2669 2484 
Q 3125 2378 3379 2068 
Q 3634 1759 3634 1313 
Q 3634 634 3220 271 
Q 2806 -91 2034 -91 
Q 1263 -91 848 271 
Q 434 634 434 1313 
Q 434 1759 690 2068 
Q 947 2378 1403 2484 
z
M 1172 3481 
Q 1172 3119 1398 2916 
Q 1625 2713 2034 2713 
Q 2441 2713 2670 2916 
Q 2900 3119 2900 3481 
Q 2900 3844 2670 4047 
Q 2441 4250 2034 4250 
Q 1625 4250 1398 4047 
Q 1172 3844 1172 3481 
z
" transform="scale(0.015625)"/>
       </defs>
       <use xlink:href="#DejaVuSans-38"/>
       <use xlink:href="#DejaVuSans-30" x="63.623047"/>
      </g>
     </g>
    </g>
    <g id="ytick_6">
     <g id="line2d_11">
      <g>
       <use xlink:href="#m8a00bbde48" x="68.93" y="30.48" style="stroke: #000000; stroke-width: 0.8"/>
      </g>
     </g>
     <g id="text_11">
      <!-- 100 -->
      <g transform="translate(38.7075 35.798906) scale(0.14 -0.14)">
       <use xlink:href="#DejaVuSans-31"/>
       <use xlink:href="#DejaVuSans-30" x="63.623047"/>
       <use xlink:href="#DejaVuSans-30" x="127.246094"/>
      </g>
     </g>
    </g>
   </g>
   <g id="line2d_12">
    <path d="M 68.93 217.044213 
L 79.45825 210.737611 
L 89.9865 195.972771 
L 100.51475 180.881513 
L 111.043 171.747324 
L 121.57125 163.385013 
L 132.0995 157.61334 
L 142.62775 154.544325 
L 153.156 153.260476 
L 163.68425 152.15243 
L 174.2125 142.549926 
L 184.74075 128.66688 
L 195.269 121.923428 
L 205.79725 118.405785 
L 216.3255 116.410099 
L 226.85375 105.653593 
L 237.382 96.556619 
L 247.91025 96.115453 
L 258.4385 95.765116 
L 268.96675 89.11206 
" clip-path="url(#p6b1d973e8f)" style="fill: none; stroke: #a50026; stroke-width: 4; stroke-linecap: square"/>
   </g>
   <g id="line2d_13">
    <path d="M 68.93 195.088401 
L 79.45825 185.345608 
L 89.9865 160.239156 
L 100.51475 137.939158 
L 111.043 118.994614 
L 121.57125 102.546532 
L 132.0995 92.444437 
L 142.62775 79.99934 
L 153.156 68.778542 
L 163.68425 67.302676 
L 174.2125 61.403326 
L 184.74075 60.916395 
L 195.269 55.102812 
L 205.79725 54.793489 
L 216.3255 54.613632 
L 226.85375 52.916945 
L 237.382 50.633418 
L 247.91025 50.566144 
L 258.4385 50.495957 
L 268.96675 50.420067 
" clip-path="url(#p6b1d973e8f)" style="fill: none; stroke: #313695; stroke-width: 4; stroke-linecap: square"/>
   </g>
   <g id="patch_3">
    <path d="M 68.93 303.94 
L 68.93 30.48 
" style="fill: none; stroke: #000000; stroke-width: 0.8; stroke-linejoin: miter; stroke-linecap: square"/>
   </g>
   <g id="patch_4">
    <path d="M 279.495 303.94 
L 279.495 30.48 
" style="fill: none; stroke: #000000; stroke-width: 0.8; stroke-linejoin: miter; stroke-linecap: square"/>
   </g>
   <g id="patch_5">
    <path d="M 68.93 303.94 
L 279.495 303.94 
" style="fill: none; stroke: #000000; stroke-width: 0.8; stroke-linejoin: miter; stroke-linecap: square"/>
   </g>
   <g id="patch_6">
    <path d="M 68.93 30.48 
L 279.495 30.48 
" style="fill: none; stroke: #000000; stroke-width: 0.8; stroke-linejoin: miter; stroke-linecap: square"/>
   </g>
   <g id="text_12">
    <!-- Aux. SR1 -->
    <g transform="translate(133.61125 24.48) scale(0.18 -0.18)">
     <defs>
      <path id="DejaVuSans-41" d="M 2188 4044 
L 1331 1722 
L 3047 1722 
L 2188 4044 
z
M 1831 4666 
L 2547 4666 
L 4325 0 
L 3669 0 
L 3244 1197 
L 1141 1197 
L 716 0 
L 50 0 
L 1831 4666 
z
" transform="scale(0.015625)"/>
      <path id="DejaVuSans-75" d="M 544 1381 
L 544 3500 
L 1119 3500 
L 1119 1403 
Q 1119 906 1312 657 
Q 1506 409 1894 409 
Q 2359 409 2629 706 
Q 2900 1003 2900 1516 
L 2900 3500 
L 3475 3500 
L 3475 0 
L 2900 0 
L 2900 538 
Q 2691 219 2414 64 
Q 2138 -91 1772 -91 
Q 1169 -91 856 284 
Q 544 659 544 1381 
z
M 1991 3584 
L 1991 3584 
z
" transform="scale(0.015625)"/>
      <path id="DejaVuSans-78" d="M 3513 3500 
L 2247 1797 
L 3578 0 
L 2900 0 
L 1881 1375 
L 863 0 
L 184 0 
L 1544 1831 
L 300 3500 
L 978 3500 
L 1906 2253 
L 2834 3500 
L 3513 3500 
z
" transform="scale(0.015625)"/>
      <path id="DejaVuSans-2e" d="M 684 794 
L 1344 794 
L 1344 0 
L 684 0 
L 684 794 
z
" transform="scale(0.015625)"/>
      <path id="DejaVuSans-20" transform="scale(0.015625)"/>
      <path id="DejaVuSans-53" d="M 3425 4513 
L 3425 3897 
Q 3066 4069 2747 4153 
Q 2428 4238 2131 4238 
Q 1616 4238 1336 4038 
Q 1056 3838 1056 3469 
Q 1056 3159 1242 3001 
Q 1428 2844 1947 2747 
L 2328 2669 
Q 3034 2534 3370 2195 
Q 3706 1856 3706 1288 
Q 3706 609 3251 259 
Q 2797 -91 1919 -91 
Q 1588 -91 1214 -16 
Q 841 59 441 206 
L 441 856 
Q 825 641 1194 531 
Q 1563 422 1919 422 
Q 2459 422 2753 634 
Q 3047 847 3047 1241 
Q 3047 1584 2836 1778 
Q 2625 1972 2144 2069 
L 1759 2144 
Q 1053 2284 737 2584 
Q 422 2884 422 3419 
Q 422 4038 858 4394 
Q 1294 4750 2059 4750 
Q 2388 4750 2728 4690 
Q 3069 4631 3425 4513 
z
" transform="scale(0.015625)"/>
      <path id="DejaVuSans-52" d="M 2841 2188 
Q 3044 2119 3236 1894 
Q 3428 1669 3622 1275 
L 4263 0 
L 3584 0 
L 2988 1197 
Q 2756 1666 2539 1819 
Q 2322 1972 1947 1972 
L 1259 1972 
L 1259 0 
L 628 0 
L 628 4666 
L 2053 4666 
Q 2853 4666 3247 4331 
Q 3641 3997 3641 3322 
Q 3641 2881 3436 2590 
Q 3231 2300 2841 2188 
z
M 1259 4147 
L 1259 2491 
L 2053 2491 
Q 2509 2491 2742 2702 
Q 2975 2913 2975 3322 
Q 2975 3731 2742 3939 
Q 2509 4147 2053 4147 
L 1259 4147 
z
" transform="scale(0.015625)"/>
     </defs>
     <use xlink:href="#DejaVuSans-41"/>
     <use xlink:href="#DejaVuSans-75" x="68.408203"/>
     <use xlink:href="#DejaVuSans-78" x="131.787109"/>
     <use xlink:href="#DejaVuSans-2e" x="190.966797"/>
     <use xlink:href="#DejaVuSans-20" x="222.753906"/>
     <use xlink:href="#DejaVuSans-53" x="254.541016"/>
     <use xlink:href="#DejaVuSans-52" x="318.017578"/>
     <use xlink:href="#DejaVuSans-31" x="387.5"/>
    </g>
   </g>
   <g id="legend_1">
    <g id="patch_7">
     <path d="M 77.33 297.94 
L 150.8825 297.94 
Q 153.2825 297.94 153.2825 295.54 
L 153.2825 261.5125 
Q 153.2825 259.1125 150.8825 259.1125 
L 77.33 259.1125 
Q 74.93 259.1125 74.93 261.5125 
L 74.93 295.54 
Q 74.93 297.94 77.33 297.94 
L 77.33 297.94 
z
" style="fill: none; opacity: 0"/>
    </g>
    <g id="line2d_14">
     <path d="M 79.73 268.830625 
L 91.73 268.830625 
L 103.73 268.830625 
" style="fill: none; stroke: #a50026; stroke-width: 4; stroke-linecap: square"/>
    </g>
    <g id="text_13">
     <!-- STBO -->
     <g transform="translate(113.33 273.030625) scale(0.12 -0.12)">
      <defs>
       <path id="DejaVuSans-54" d="M -19 4666 
L 3928 4666 
L 3928 4134 
L 2272 4134 
L 2272 0 
L 1638 0 
L 1638 4134 
L -19 4134 
L -19 4666 
z
" transform="scale(0.015625)"/>
       <path id="DejaVuSans-42" d="M 1259 2228 
L 1259 519 
L 2272 519 
Q 2781 519 3026 730 
Q 3272 941 3272 1375 
Q 3272 1813 3026 2020 
Q 2781 2228 2272 2228 
L 1259 2228 
z
M 1259 4147 
L 1259 2741 
L 2194 2741 
Q 2656 2741 2882 2914 
Q 3109 3088 3109 3444 
Q 3109 3797 2882 3972 
Q 2656 4147 2194 4147 
L 1259 4147 
z
M 628 4666 
L 2241 4666 
Q 2963 4666 3353 4366 
Q 3744 4066 3744 3513 
Q 3744 3084 3544 2831 
Q 3344 2578 2956 2516 
Q 3422 2416 3680 2098 
Q 3938 1781 3938 1306 
Q 3938 681 3513 340 
Q 3088 0 2303 0 
L 628 0 
L 628 4666 
z
" transform="scale(0.015625)"/>
       <path id="DejaVuSans-4f" d="M 2522 4238 
Q 1834 4238 1429 3725 
Q 1025 3213 1025 2328 
Q 1025 1447 1429 934 
Q 1834 422 2522 422 
Q 3209 422 3611 934 
Q 4013 1447 4013 2328 
Q 4013 3213 3611 3725 
Q 3209 4238 2522 4238 
z
M 2522 4750 
Q 3503 4750 4090 4092 
Q 4678 3434 4678 2328 
Q 4678 1225 4090 567 
Q 3503 -91 2522 -91 
Q 1538 -91 948 565 
Q 359 1222 359 2328 
Q 359 3434 948 4092 
Q 1538 4750 2522 4750 
z
" transform="scale(0.015625)"/>
      </defs>
      <use xlink:href="#DejaVuSans-53"/>
      <use xlink:href="#DejaVuSans-54" x="63.476562"/>
      <use xlink:href="#DejaVuSans-42" x="124.560547"/>
      <use xlink:href="#DejaVuSans-4f" x="191.414062"/>
     </g>
    </g>
    <g id="line2d_15">
     <path d="M 79.73 286.444375 
L 91.73 286.444375 
L 103.73 286.444375 
" style="fill: none; stroke: #313695; stroke-width: 4; stroke-linecap: square"/>
    </g>
    <g id="text_14">
     <!-- MTBO -->
     <g transform="translate(113.33 290.644375) scale(0.12 -0.12)">
      <defs>
       <path id="DejaVuSans-4d" d="M 628 4666 
L 1569 4666 
L 2759 1491 
L 3956 4666 
L 4897 4666 
L 4897 0 
L 4281 0 
L 4281 4097 
L 3078 897 
L 2444 897 
L 1241 4097 
L 1241 0 
L 628 0 
L 628 4666 
z
" transform="scale(0.015625)"/>
      </defs>
      <use xlink:href="#DejaVuSans-4d"/>
      <use xlink:href="#DejaVuSans-54" x="86.279297"/>
      <use xlink:href="#DejaVuSans-42" x="147.363281"/>
      <use xlink:href="#DejaVuSans-4f" x="214.216797"/>
     </g>
    </g>
   </g>
  </g>
  <g id="axes_2">
   <g id="patch_8">
    <path d="M 329.21 303.94 
L 539.775 303.94 
L 539.775 30.48 
L 329.21 30.48 
L 329.21 303.94 
z
" style="fill: none"/>
   </g>
   <g id="PolyCollection_3">
    <defs>
     <path id="mfce42310a9" d="M 329.21 -212.739184 
L 329.21 -73.172389 
L 339.73825 -80.312746 
L 350.2665 -84.581199 
L 360.79475 -89.036517 
L 371.323 -92.850812 
L 381.85125 -93.912481 
L 392.3795 -99.065166 
L 402.90775 -101.087277 
L 413.436 -102.032549 
L 423.96425 -103.286163 
L 434.4925 -111.9196 
L 445.02075 -119.235073 
L 455.549 -123.72779 
L 466.07725 -130.566355 
L 476.6055 -137.308888 
L 487.13375 -152.758636 
L 497.662 -171.869684 
L 508.19025 -173.134355 
L 518.7185 -174.449623 
L 529.24675 -179.523723 
L 529.24675 -362.252157 
L 529.24675 -362.252157 
L 518.7185 -354.020145 
L 508.19025 -354.634739 
L 497.662 -355.017078 
L 487.13375 -355.934179 
L 476.6055 -349.870914 
L 466.07725 -352.622074 
L 455.549 -352.425354 
L 445.02075 -343.431166 
L 434.4925 -322.980547 
L 423.96425 -312.408976 
L 413.436 -311.446499 
L 402.90775 -309.824073 
L 392.3795 -305.708153 
L 381.85125 -299.317494 
L 371.323 -283.654539 
L 360.79475 -269.200458 
L 350.2665 -243.473258 
L 339.73825 -218.212031 
L 329.21 -212.739184 
z
" style="stroke: #a50026; stroke-opacity: 0.1"/>
    </defs>
    <g clip-path="url(#pf5c4931e98)">
     <use xlink:href="#mfce42310a9" x="0" y="360" style="fill: #a50026; fill-opacity: 0.1; stroke: #a50026; stroke-opacity: 0.1"/>
    </g>
   </g>
   <g id="PolyCollection_4">
    <defs>
     <path id="m234ae9cdfb" d="M 329.21 -174.464585 
L 329.21 -80.159735 
L 339.73825 -101.158508 
L 350.2665 -100.402414 
L 360.79475 -99.763933 
L 371.323 -99.763933 
L 381.85125 -99.763933 
L 392.3795 -121.855526 
L 402.90775 -121.504551 
L 413.436 -140.28329 
L 423.96425 -144.641709 
L 434.4925 -159.339168 
L 445.02075 -165.756967 
L 455.549 -170.604323 
L 466.07725 -168.427891 
L 476.6055 -168.427891 
L 487.13375 -167.503349 
L 497.662 -166.924688 
L 508.19025 -140.839243 
L 518.7185 -147.822141 
L 529.24675 -146.368805 
L 529.24675 -322.794988 
L 529.24675 -322.794988 
L 518.7185 -309.649668 
L 508.19025 -244.810127 
L 497.662 -179.197864 
L 487.13375 -177.966034 
L 476.6055 -175.997907 
L 466.07725 -175.997907 
L 455.549 -171.36481 
L 445.02075 -173.046279 
L 434.4925 -176.059223 
L 423.96425 -182.962652 
L 413.436 -185.009961 
L 402.90775 -193.831208 
L 392.3795 -191.591537 
L 381.85125 -201.927453 
L 371.323 -201.927453 
L 360.79475 -201.927453 
L 350.2665 -197.260859 
L 339.73825 -191.666536 
L 329.21 -174.464585 
z
" style="stroke: #313695; stroke-opacity: 0.1"/>
    </defs>
    <g clip-path="url(#pf5c4931e98)">
     <use xlink:href="#m234ae9cdfb" x="0" y="360" style="fill: #313695; fill-opacity: 0.1; stroke: #313695; stroke-opacity: 0.1"/>
    </g>
   </g>
   <g id="matplotlib.axis_3">
    <g id="xtick_6">
     <g id="line2d_16">
      <g>
       <use xlink:href="#macc77c1896" x="329.21" y="303.94" style="stroke: #000000; stroke-width: 0.8"/>
      </g>
     </g>
     <g id="text_15">
      <!-- 0 -->
      <g transform="translate(324.75625 318.077812) scale(0.14 -0.14)">
       <use xlink:href="#DejaVuSans-30"/>
      </g>
     </g>
    </g>
    <g id="xtick_7">
     <g id="line2d_17">
      <g>
       <use xlink:href="#macc77c1896" x="381.85125" y="303.94" style="stroke: #000000; stroke-width: 0.8"/>
      </g>
     </g>
     <g id="text_16">
      <!-- 5 -->
      <g transform="translate(377.3975 318.077812) scale(0.14 -0.14)">
       <use xlink:href="#DejaVuSans-35"/>
      </g>
     </g>
    </g>
    <g id="xtick_8">
     <g id="line2d_18">
      <g>
       <use xlink:href="#macc77c1896" x="434.4925" y="303.94" style="stroke: #000000; stroke-width: 0.8"/>
      </g>
     </g>
     <g id="text_17">
      <!-- 10 -->
      <g transform="translate(425.585 318.077812) scale(0.14 -0.14)">
       <use xlink:href="#DejaVuSans-31"/>
       <use xlink:href="#DejaVuSans-30" x="63.623047"/>
      </g>
     </g>
    </g>
    <g id="xtick_9">
     <g id="line2d_19">
      <g>
       <use xlink:href="#macc77c1896" x="487.13375" y="303.94" style="stroke: #000000; stroke-width: 0.8"/>
      </g>
     </g>
     <g id="text_18">
      <!-- 15 -->
      <g transform="translate(478.22625 318.077812) scale(0.14 -0.14)">
       <use xlink:href="#DejaVuSans-31"/>
       <use xlink:href="#DejaVuSans-35" x="63.623047"/>
      </g>
     </g>
    </g>
    <g id="xtick_10">
     <g id="line2d_20">
      <g>
       <use xlink:href="#macc77c1896" x="539.775" y="303.94" style="stroke: #000000; stroke-width: 0.8"/>
      </g>
     </g>
     <g id="text_19">
      <!-- 20 -->
      <g transform="translate(530.8675 318.077812) scale(0.14 -0.14)">
       <use xlink:href="#DejaVuSans-32"/>
       <use xlink:href="#DejaVuSans-30" x="63.623047"/>
      </g>
     </g>
    </g>
   </g>
   <g id="matplotlib.axis_4">
    <g id="ytick_7">
     <g id="line2d_21">
      <g>
       <use xlink:href="#m8a00bbde48" x="329.21" y="303.94" style="stroke: #000000; stroke-width: 0.8"/>
      </g>
     </g>
     <g id="text_20">
      <!-- 0 -->
      <g transform="translate(316.8025 309.258906) scale(0.14 -0.14)">
       <use xlink:href="#DejaVuSans-30"/>
      </g>
     </g>
    </g>
    <g id="ytick_8">
     <g id="line2d_22">
      <g>
       <use xlink:href="#m8a00bbde48" x="329.21" y="249.248" style="stroke: #000000; stroke-width: 0.8"/>
      </g>
     </g>
     <g id="text_21">
      <!-- 20 -->
      <g transform="translate(307.895 254.566906) scale(0.14 -0.14)">
       <use xlink:href="#DejaVuSans-32"/>
       <use xlink:href="#DejaVuSans-30" x="63.623047"/>
      </g>
     </g>
    </g>
    <g id="ytick_9">
     <g id="line2d_23">
      <g>
       <use xlink:href="#m8a00bbde48" x="329.21" y="194.556" style="stroke: #000000; stroke-width: 0.8"/>
      </g>
     </g>
     <g id="text_22">
      <!-- 40 -->
      <g transform="translate(307.895 199.874906) scale(0.14 -0.14)">
       <use xlink:href="#DejaVuSans-34"/>
       <use xlink:href="#DejaVuSans-30" x="63.623047"/>
      </g>
     </g>
    </g>
    <g id="ytick_10">
     <g id="line2d_24">
      <g>
       <use xlink:href="#m8a00bbde48" x="329.21" y="139.864" style="stroke: #000000; stroke-width: 0.8"/>
      </g>
     </g>
     <g id="text_23">
      <!-- 60 -->
      <g transform="translate(307.895 145.182906) scale(0.14 -0.14)">
       <use xlink:href="#DejaVuSans-36"/>
       <use xlink:href="#DejaVuSans-30" x="63.623047"/>
      </g>
     </g>
    </g>
    <g id="ytick_11">
     <g id="line2d_25">
      <g>
       <use xlink:href="#m8a00bbde48" x="329.21" y="85.172" style="stroke: #000000; stroke-width: 0.8"/>
      </g>
     </g>
     <g id="text_24">
      <!-- 80 -->
      <g transform="translate(307.895 90.490906) scale(0.14 -0.14)">
       <use xlink:href="#DejaVuSans-38"/>
       <use xlink:href="#DejaVuSans-30" x="63.623047"/>
      </g>
     </g>
    </g>
    <g id="ytick_12">
     <g id="line2d_26">
      <g>
       <use xlink:href="#m8a00bbde48" x="329.21" y="30.48" style="stroke: #000000; stroke-width: 0.8"/>
      </g>
     </g>
     <g id="text_25">
      <!-- 100 -->
      <g transform="translate(298.9875 35.798906) scale(0.14 -0.14)">
       <use xlink:href="#DejaVuSans-31"/>
       <use xlink:href="#DejaVuSans-30" x="63.623047"/>
       <use xlink:href="#DejaVuSans-30" x="127.246094"/>
      </g>
     </g>
    </g>
   </g>
   <g id="line2d_27">
    <path d="M 329.21 217.044213 
L 339.73825 210.737611 
L 350.2665 195.972771 
L 360.79475 180.881513 
L 371.323 171.747324 
L 381.85125 163.385013 
L 392.3795 157.61334 
L 402.90775 154.544325 
L 413.436 153.260476 
L 423.96425 152.15243 
L 434.4925 142.549926 
L 445.02075 128.66688 
L 455.549 121.923428 
L 466.07725 118.405785 
L 476.6055 116.410099 
L 487.13375 105.653593 
L 497.662 96.556619 
L 508.19025 96.115453 
L 518.7185 95.765116 
L 529.24675 89.11206 
" clip-path="url(#pf5c4931e98)" style="fill: none; stroke: #a50026; stroke-width: 4; stroke-linecap: square"/>
   </g>
   <g id="line2d_28">
    <path d="M 329.21 232.68784 
L 339.73825 213.587478 
L 350.2665 211.168363 
L 360.79475 209.154307 
L 371.323 209.154307 
L 381.85125 209.154307 
L 392.3795 203.276469 
L 402.90775 202.332121 
L 413.436 197.353374 
L 423.96425 196.19782 
L 434.4925 192.300805 
L 445.02075 190.598377 
L 455.549 189.015433 
L 466.07725 187.787101 
L 476.6055 187.787101 
L 487.13375 187.265309 
L 497.662 186.938724 
L 508.19025 167.175315 
L 518.7185 131.264096 
L 529.24675 125.418104 
" clip-path="url(#pf5c4931e98)" style="fill: none; stroke: #313695; stroke-width: 4; stroke-linecap: square"/>
   </g>
   <g id="patch_9">
    <path d="M 329.21 303.94 
L 329.21 30.48 
" style="fill: none; stroke: #000000; stroke-width: 0.8; stroke-linejoin: miter; stroke-linecap: square"/>
   </g>
   <g id="patch_10">
    <path d="M 539.775 303.94 
L 539.775 30.48 
" style="fill: none; stroke: #000000; stroke-width: 0.8; stroke-linejoin: miter; stroke-linecap: square"/>
   </g>
   <g id="patch_11">
    <path d="M 329.21 303.94 
L 539.775 303.94 
" style="fill: none; stroke: #000000; stroke-width: 0.8; stroke-linejoin: miter; stroke-linecap: square"/>
   </g>
   <g id="patch_12">
    <path d="M 329.21 30.48 
L 539.775 30.48 
" style="fill: none; stroke: #000000; stroke-width: 0.8; stroke-linejoin: miter; stroke-linecap: square"/>
   </g>
   <g id="text_26">
    <!-- Aux. SR2 -->
    <g transform="translate(393.89125 24.48) scale(0.18 -0.18)">
     <use xlink:href="#DejaVuSans-41"/>
     <use xlink:href="#DejaVuSans-75" x="68.408203"/>
     <use xlink:href="#DejaVuSans-78" x="131.787109"/>
     <use xlink:href="#DejaVuSans-2e" x="190.966797"/>
     <use xlink:href="#DejaVuSans-20" x="222.753906"/>
     <use xlink:href="#DejaVuSans-53" x="254.541016"/>
     <use xlink:href="#DejaVuSans-52" x="318.017578"/>
     <use xlink:href="#DejaVuSans-32" x="387.5"/>
    </g>
   </g>
   <g id="legend_2">
    <g id="patch_13">
     <path d="M 457.8225 75.3075 
L 531.375 75.3075 
Q 533.775 75.3075 533.775 72.9075 
L 533.775 38.88 
Q 533.775 36.48 531.375 36.48 
L 457.8225 36.48 
Q 455.4225 36.48 455.4225 38.88 
L 455.4225 72.9075 
Q 455.4225 75.3075 457.8225 75.3075 
L 457.8225 75.3075 
z
" style="fill: none; opacity: 0"/>
    </g>
    <g id="line2d_29">
     <path d="M 460.2225 46.198125 
L 472.2225 46.198125 
L 484.2225 46.198125 
" style="fill: none; stroke: #a50026; stroke-width: 4; stroke-linecap: square"/>
    </g>
    <g id="text_27">
     <!-- STBO -->
     <g transform="translate(493.8225 50.398125) scale(0.12 -0.12)">
      <use xlink:href="#DejaVuSans-53"/>
      <use xlink:href="#DejaVuSans-54" x="63.476562"/>
      <use xlink:href="#DejaVuSans-42" x="124.560547"/>
      <use xlink:href="#DejaVuSans-4f" x="191.414062"/>
     </g>
    </g>
    <g id="line2d_30">
     <path d="M 460.2225 63.811875 
L 472.2225 63.811875 
L 484.2225 63.811875 
" style="fill: none; stroke: #313695; stroke-width: 4; stroke-linecap: square"/>
    </g>
    <g id="text_28">
     <!-- MTBO -->
     <g transform="translate(493.8225 68.011875) scale(0.12 -0.12)">
      <use xlink:href="#DejaVuSans-4d"/>
      <use xlink:href="#DejaVuSans-54" x="86.279297"/>
      <use xlink:href="#DejaVuSans-42" x="147.363281"/>
      <use xlink:href="#DejaVuSans-4f" x="214.216797"/>
     </g>
    </g>
   </g>
  </g>
  <g id="axes_3">
   <g id="patch_14">
    <path d="M 589.49 303.94 
L 800.055 303.94 
L 800.055 30.48 
L 589.49 30.48 
L 589.49 303.94 
z
" style="fill: none"/>
   </g>
   <g id="PolyCollection_5">
    <defs>
     <path id="m4a84c87be0" d="M 589.49 -212.739184 
L 589.49 -73.172389 
L 600.01825 -80.312746 
L 610.5465 -84.581199 
L 621.07475 -89.036517 
L 631.603 -92.850812 
L 642.13125 -93.912481 
L 652.6595 -99.065166 
L 663.18775 -101.087277 
L 673.716 -102.032549 
L 684.24425 -103.286163 
L 694.7725 -111.9196 
L 705.30075 -119.235073 
L 715.829 -123.72779 
L 726.35725 -130.566355 
L 736.8855 -137.308888 
L 747.41375 -152.758636 
L 757.942 -171.869684 
L 768.47025 -173.134355 
L 778.9985 -174.449623 
L 789.52675 -179.523723 
L 789.52675 -362.252157 
L 789.52675 -362.252157 
L 778.9985 -354.020145 
L 768.47025 -354.634739 
L 757.942 -355.017078 
L 747.41375 -355.934179 
L 736.8855 -349.870914 
L 726.35725 -352.622074 
L 715.829 -352.425354 
L 705.30075 -343.431166 
L 694.7725 -322.980547 
L 684.24425 -312.408976 
L 673.716 -311.446499 
L 663.18775 -309.824073 
L 652.6595 -305.708153 
L 642.13125 -299.317494 
L 631.603 -283.654539 
L 621.07475 -269.200458 
L 610.5465 -243.473258 
L 600.01825 -218.212031 
L 589.49 -212.739184 
z
" style="stroke: #a50026; stroke-opacity: 0.1"/>
    </defs>
    <g clip-path="url(#p8eb2d11f07)">
     <use xlink:href="#m4a84c87be0" x="0" y="360" style="fill: #a50026; fill-opacity: 0.1; stroke: #a50026; stroke-opacity: 0.1"/>
    </g>
   </g>
   <g id="PolyCollection_6">
    <defs>
     <path id="m60579a5e49" d="M 589.49 -237.494529 
L 589.49 -65.727674 
L 600.01825 -95.842452 
L 610.5465 -130.264927 
L 621.07475 -143.559037 
L 631.603 -150.715649 
L 642.13125 -159.631997 
L 652.6595 -161.349655 
L 663.18775 -161.312902 
L 673.716 -186.961257 
L 684.24425 -190.779459 
L 694.7725 -195.356248 
L 705.30075 -230.315912 
L 715.829 -230.68729 
L 726.35725 -233.943692 
L 736.8855 -277.557551 
L 747.41375 -280.876721 
L 757.942 -285.289634 
L 768.47025 -288.500966 
L 778.9985 -289.745495 
L 789.52675 -295.573926 
L 789.52675 -322.962436 
L 789.52675 -322.962436 
L 778.9985 -325.941625 
L 768.47025 -326.270857 
L 757.942 -327.004642 
L 747.41375 -329.774765 
L 736.8855 -330.828088 
L 726.35725 -363.034764 
L 715.829 -362.707549 
L 705.30075 -360.998445 
L 694.7725 -377.193335 
L 684.24425 -375.686369 
L 673.716 -372.090481 
L 663.18775 -382.768829 
L 652.6595 -382.380629 
L 642.13125 -374.930519 
L 631.603 -375.470088 
L 621.07475 -376.964169 
L 610.5465 -375.001852 
L 600.01825 -333.258524 
L 589.49 -237.494529 
z
" style="stroke: #313695; stroke-opacity: 0.1"/>
    </defs>
    <g clip-path="url(#p8eb2d11f07)">
     <use xlink:href="#m60579a5e49" x="0" y="360" style="fill: #313695; fill-opacity: 0.1; stroke: #313695; stroke-opacity: 0.1"/>
    </g>
   </g>
   <g id="matplotlib.axis_5">
    <g id="xtick_11">
     <g id="line2d_31">
      <g>
       <use xlink:href="#macc77c1896" x="589.49" y="303.94" style="stroke: #000000; stroke-width: 0.8"/>
      </g>
     </g>
     <g id="text_29">
      <!-- 0 -->
      <g transform="translate(585.03625 318.077812) scale(0.14 -0.14)">
       <use xlink:href="#DejaVuSans-30"/>
      </g>
     </g>
    </g>
    <g id="xtick_12">
     <g id="line2d_32">
      <g>
       <use xlink:href="#macc77c1896" x="642.13125" y="303.94" style="stroke: #000000; stroke-width: 0.8"/>
      </g>
     </g>
     <g id="text_30">
      <!-- 5 -->
      <g transform="translate(637.6775 318.077812) scale(0.14 -0.14)">
       <use xlink:href="#DejaVuSans-35"/>
      </g>
     </g>
    </g>
    <g id="xtick_13">
     <g id="line2d_33">
      <g>
       <use xlink:href="#macc77c1896" x="694.7725" y="303.94" style="stroke: #000000; stroke-width: 0.8"/>
      </g>
     </g>
     <g id="text_31">
      <!-- 10 -->
      <g transform="translate(685.865 318.077812) scale(0.14 -0.14)">
       <use xlink:href="#DejaVuSans-31"/>
       <use xlink:href="#DejaVuSans-30" x="63.623047"/>
      </g>
     </g>
    </g>
    <g id="xtick_14">
     <g id="line2d_34">
      <g>
       <use xlink:href="#macc77c1896" x="747.41375" y="303.94" style="stroke: #000000; stroke-width: 0.8"/>
      </g>
     </g>
     <g id="text_32">
      <!-- 15 -->
      <g transform="translate(738.50625 318.077812) scale(0.14 -0.14)">
       <use xlink:href="#DejaVuSans-31"/>
       <use xlink:href="#DejaVuSans-35" x="63.623047"/>
      </g>
     </g>
    </g>
    <g id="xtick_15">
     <g id="line2d_35">
      <g>
       <use xlink:href="#macc77c1896" x="800.055" y="303.94" style="stroke: #000000; stroke-width: 0.8"/>
      </g>
     </g>
     <g id="text_33">
      <!-- 20 -->
      <g transform="translate(791.1475 318.077812) scale(0.14 -0.14)">
       <use xlink:href="#DejaVuSans-32"/>
       <use xlink:href="#DejaVuSans-30" x="63.623047"/>
      </g>
     </g>
    </g>
   </g>
   <g id="matplotlib.axis_6">
    <g id="ytick_13">
     <g id="line2d_36">
      <g>
       <use xlink:href="#m8a00bbde48" x="589.49" y="303.94" style="stroke: #000000; stroke-width: 0.8"/>
      </g>
     </g>
     <g id="text_34">
      <!-- 0 -->
      <g transform="translate(577.0825 309.258906) scale(0.14 -0.14)">
       <use xlink:href="#DejaVuSans-30"/>
      </g>
     </g>
    </g>
    <g id="ytick_14">
     <g id="line2d_37">
      <g>
       <use xlink:href="#m8a00bbde48" x="589.49" y="249.248" style="stroke: #000000; stroke-width: 0.8"/>
      </g>
     </g>
     <g id="text_35">
      <!-- 20 -->
      <g transform="translate(568.175 254.566906) scale(0.14 -0.14)">
       <use xlink:href="#DejaVuSans-32"/>
       <use xlink:href="#DejaVuSans-30" x="63.623047"/>
      </g>
     </g>
    </g>
    <g id="ytick_15">
     <g id="line2d_38">
      <g>
       <use xlink:href="#m8a00bbde48" x="589.49" y="194.556" style="stroke: #000000; stroke-width: 0.8"/>
      </g>
     </g>
     <g id="text_36">
      <!-- 40 -->
      <g transform="translate(568.175 199.874906) scale(0.14 -0.14)">
       <use xlink:href="#DejaVuSans-34"/>
       <use xlink:href="#DejaVuSans-30" x="63.623047"/>
      </g>
     </g>
    </g>
    <g id="ytick_16">
     <g id="line2d_39">
      <g>
       <use xlink:href="#m8a00bbde48" x="589.49" y="139.864" style="stroke: #000000; stroke-width: 0.8"/>
      </g>
     </g>
     <g id="text_37">
      <!-- 60 -->
      <g transform="translate(568.175 145.182906) scale(0.14 -0.14)">
       <use xlink:href="#DejaVuSans-36"/>
       <use xlink:href="#DejaVuSans-30" x="63.623047"/>
      </g>
     </g>
    </g>
    <g id="ytick_17">
     <g id="line2d_40">
      <g>
       <use xlink:href="#m8a00bbde48" x="589.49" y="85.172" style="stroke: #000000; stroke-width: 0.8"/>
      </g>
     </g>
     <g id="text_38">
      <!-- 80 -->
      <g transform="translate(568.175 90.490906) scale(0.14 -0.14)">
       <use xlink:href="#DejaVuSans-38"/>
       <use xlink:href="#DejaVuSans-30" x="63.623047"/>
      </g>
     </g>
    </g>
    <g id="ytick_18">
     <g id="line2d_41">
      <g>
       <use xlink:href="#m8a00bbde48" x="589.49" y="30.48" style="stroke: #000000; stroke-width: 0.8"/>
      </g>
     </g>
     <g id="text_39">
      <!-- 100 -->
      <g transform="translate(559.2675 35.798906) scale(0.14 -0.14)">
       <use xlink:href="#DejaVuSans-31"/>
       <use xlink:href="#DejaVuSans-30" x="63.623047"/>
       <use xlink:href="#DejaVuSans-30" x="127.246094"/>
      </g>
     </g>
    </g>
   </g>
   <g id="line2d_42">
    <path d="M 589.49 217.044213 
L 600.01825 210.737611 
L 610.5465 195.972771 
L 621.07475 180.881513 
L 631.603 171.747324 
L 642.13125 163.385013 
L 652.6595 157.61334 
L 663.18775 154.544325 
L 673.716 153.260476 
L 684.24425 152.15243 
L 694.7725 142.549926 
L 705.30075 128.66688 
L 715.829 121.923428 
L 726.35725 118.405785 
L 736.8855 116.410099 
L 747.41375 105.653593 
L 757.942 96.556619 
L 768.47025 96.115453 
L 778.9985 95.765116 
L 789.52675 89.11206 
" clip-path="url(#p8eb2d11f07)" style="fill: none; stroke: #a50026; stroke-width: 4; stroke-linecap: square"/>
   </g>
   <g id="line2d_43">
    <path d="M 589.49 208.388899 
L 600.01825 145.449512 
L 610.5465 107.366611 
L 621.07475 99.738397 
L 631.603 96.907131 
L 642.13125 92.718742 
L 652.6595 88.134858 
L 663.18775 87.959134 
L 673.716 80.474131 
L 684.24425 76.767086 
L 694.7725 73.725209 
L 705.30075 64.342821 
L 715.829 63.30258 
L 726.35725 61.510772 
L 736.8855 55.807181 
L 747.41375 54.674257 
L 757.942 53.852862 
L 768.47025 52.614089 
L 778.9985 52.15644 
L 789.52675 50.731819 
" clip-path="url(#p8eb2d11f07)" style="fill: none; stroke: #313695; stroke-width: 4; stroke-linecap: square"/>
   </g>
   <g id="patch_15">
    <path d="M 589.49 303.94 
L 589.49 30.48 
" style="fill: none; stroke: #000000; stroke-width: 0.8; stroke-linejoin: miter; stroke-linecap: square"/>
   </g>
   <g id="patch_16">
    <path d="M 800.055 303.94 
L 800.055 30.48 
" style="fill: none; stroke: #000000; stroke-width: 0.8; stroke-linejoin: miter; stroke-linecap: square"/>
   </g>
   <g id="patch_17">
    <path d="M 589.49 303.94 
L 800.055 303.94 
" style="fill: none; stroke: #000000; stroke-width: 0.8; stroke-linejoin: miter; stroke-linecap: square"/>
   </g>
   <g id="patch_18">
    <path d="M 589.49 30.48 
L 800.055 30.48 
" style="fill: none; stroke: #000000; stroke-width: 0.8; stroke-linejoin: miter; stroke-linecap: square"/>
   </g>
   <g id="text_40">
    <!-- Aux. SR3 -->
    <g transform="translate(654.17125 24.48) scale(0.18 -0.18)">
     <defs>
      <path id="DejaVuSans-33" d="M 2597 2516 
Q 3050 2419 3304 2112 
Q 3559 1806 3559 1356 
Q 3559 666 3084 287 
Q 2609 -91 1734 -91 
Q 1441 -91 1130 -33 
Q 819 25 488 141 
L 488 750 
Q 750 597 1062 519 
Q 1375 441 1716 441 
Q 2309 441 2620 675 
Q 2931 909 2931 1356 
Q 2931 1769 2642 2001 
Q 2353 2234 1838 2234 
L 1294 2234 
L 1294 2753 
L 1863 2753 
Q 2328 2753 2575 2939 
Q 2822 3125 2822 3475 
Q 2822 3834 2567 4026 
Q 2313 4219 1838 4219 
Q 1578 4219 1281 4162 
Q 984 4106 628 3988 
L 628 4550 
Q 988 4650 1302 4700 
Q 1616 4750 1894 4750 
Q 2613 4750 3031 4423 
Q 3450 4097 3450 3541 
Q 3450 3153 3228 2886 
Q 3006 2619 2597 2516 
z
" transform="scale(0.015625)"/>
     </defs>
     <use xlink:href="#DejaVuSans-41"/>
     <use xlink:href="#DejaVuSans-75" x="68.408203"/>
     <use xlink:href="#DejaVuSans-78" x="131.787109"/>
     <use xlink:href="#DejaVuSans-2e" x="190.966797"/>
     <use xlink:href="#DejaVuSans-20" x="222.753906"/>
     <use xlink:href="#DejaVuSans-53" x="254.541016"/>
     <use xlink:href="#DejaVuSans-52" x="318.017578"/>
     <use xlink:href="#DejaVuSans-33" x="387.5"/>
    </g>
   </g>
   <g id="legend_3">
    <g id="patch_19">
     <path d="M 597.89 75.3075 
L 671.4425 75.3075 
Q 673.8425 75.3075 673.8425 72.9075 
L 673.8425 38.88 
Q 673.8425 36.48 671.4425 36.48 
L 597.89 36.48 
Q 595.49 36.48 595.49 38.88 
L 595.49 72.9075 
Q 595.49 75.3075 597.89 75.3075 
L 597.89 75.3075 
z
" style="fill: none; opacity: 0"/>
    </g>
    <g id="line2d_44">
     <path d="M 600.29 46.198125 
L 612.29 46.198125 
L 624.29 46.198125 
" style="fill: none; stroke: #a50026; stroke-width: 4; stroke-linecap: square"/>
    </g>
    <g id="text_41">
     <!-- STBO -->
     <g transform="translate(633.89 50.398125) scale(0.12 -0.12)">
      <use xlink:href="#DejaVuSans-53"/>
      <use xlink:href="#DejaVuSans-54" x="63.476562"/>
      <use xlink:href="#DejaVuSans-42" x="124.560547"/>
      <use xlink:href="#DejaVuSans-4f" x="191.414062"/>
     </g>
    </g>
    <g id="line2d_45">
     <path d="M 600.29 63.811875 
L 612.29 63.811875 
L 624.29 63.811875 
" style="fill: none; stroke: #313695; stroke-width: 4; stroke-linecap: square"/>
    </g>
    <g id="text_42">
     <!-- MTBO -->
     <g transform="translate(633.89 68.011875) scale(0.12 -0.12)">
      <use xlink:href="#DejaVuSans-4d"/>
      <use xlink:href="#DejaVuSans-54" x="86.279297"/>
      <use xlink:href="#DejaVuSans-42" x="147.363281"/>
      <use xlink:href="#DejaVuSans-4f" x="214.216797"/>
     </g>
    </g>
   </g>
  </g>
  <g id="axes_4">
   <g id="patch_20">
    <path d="M 849.77 303.94 
L 1060.335 303.94 
L 1060.335 30.48 
L 849.77 30.48 
L 849.77 303.94 
z
" style="fill: none"/>
   </g>
   <g id="PolyCollection_7">
    <defs>
     <path id="m06eb5b066b" d="M 849.77 -212.739184 
L 849.77 -73.172389 
L 860.29825 -80.312746 
L 870.8265 -84.581199 
L 881.35475 -89.036517 
L 891.883 -92.850812 
L 902.41125 -93.912481 
L 912.9395 -99.065166 
L 923.46775 -101.087277 
L 933.996 -102.032549 
L 944.52425 -103.286163 
L 955.0525 -111.9196 
L 965.58075 -119.235073 
L 976.109 -123.72779 
L 986.63725 -130.566355 
L 997.1655 -137.308888 
L 1007.69375 -152.758636 
L 1018.222 -171.869684 
L 1028.75025 -173.134355 
L 1039.2785 -174.449623 
L 1049.80675 -179.523723 
L 1049.80675 -362.252157 
L 1049.80675 -362.252157 
L 1039.2785 -354.020145 
L 1028.75025 -354.634739 
L 1018.222 -355.017078 
L 1007.69375 -355.934179 
L 997.1655 -349.870914 
L 986.63725 -352.622074 
L 976.109 -352.425354 
L 965.58075 -343.431166 
L 955.0525 -322.980547 
L 944.52425 -312.408976 
L 933.996 -311.446499 
L 923.46775 -309.824073 
L 912.9395 -305.708153 
L 902.41125 -299.317494 
L 891.883 -283.654539 
L 881.35475 -269.200458 
L 870.8265 -243.473258 
L 860.29825 -218.212031 
L 849.77 -212.739184 
z
" style="stroke: #a50026; stroke-opacity: 0.1"/>
    </defs>
    <g clip-path="url(#p16298053a0)">
     <use xlink:href="#m06eb5b066b" x="0" y="360" style="fill: #a50026; fill-opacity: 0.1; stroke: #a50026; stroke-opacity: 0.1"/>
    </g>
   </g>
   <g id="PolyCollection_8">
    <defs>
     <path id="m173fd56e72" d="M 849.77 -259.272727 
L 849.77 -44.342895 
L 860.29825 -102.671405 
L 870.8265 -106.347872 
L 881.35475 -152.456535 
L 891.883 -157.368721 
L 902.41125 -156.093857 
L 912.9395 -184.34341 
L 923.46775 -184.306944 
L 933.996 -186.758982 
L 944.52425 -222.130649 
L 955.0525 -222.130649 
L 965.58075 -243.043211 
L 976.109 -257.183976 
L 986.63725 -259.986355 
L 997.1655 -260.389215 
L 1007.69375 -260.009277 
L 1018.222 -260.763003 
L 1028.75025 -264.659578 
L 1039.2785 -270.322322 
L 1049.80675 -270.322322 
L 1049.80675 -329.462882 
L 1049.80675 -329.462882 
L 1039.2785 -329.462882 
L 1028.75025 -328.804204 
L 1018.222 -326.118265 
L 1007.69375 -326.150591 
L 997.1655 -325.013088 
L 986.63725 -324.931056 
L 976.109 -321.503323 
L 965.58075 -325.740405 
L 955.0525 -323.339172 
L 944.52425 -323.339172 
L 933.996 -327.010813 
L 923.46775 -321.975194 
L 912.9395 -321.903268 
L 902.41125 -328.234697 
L 891.883 -317.363213 
L 881.35475 -306.056183 
L 870.8265 -308.905299 
L 860.29825 -309.575264 
L 849.77 -259.272727 
z
" style="stroke: #313695; stroke-opacity: 0.1"/>
    </defs>
    <g clip-path="url(#p16298053a0)">
     <use xlink:href="#m173fd56e72" x="0" y="360" style="fill: #313695; fill-opacity: 0.1; stroke: #313695; stroke-opacity: 0.1"/>
    </g>
   </g>
   <g id="matplotlib.axis_7">
    <g id="xtick_16">
     <g id="line2d_46">
      <g>
       <use xlink:href="#macc77c1896" x="849.77" y="303.94" style="stroke: #000000; stroke-width: 0.8"/>
      </g>
     </g>
     <g id="text_43">
      <!-- 0 -->
      <g transform="translate(845.31625 318.077812) scale(0.14 -0.14)">
       <use xlink:href="#DejaVuSans-30"/>
      </g>
     </g>
    </g>
    <g id="xtick_17">
     <g id="line2d_47">
      <g>
       <use xlink:href="#macc77c1896" x="902.41125" y="303.94" style="stroke: #000000; stroke-width: 0.8"/>
      </g>
     </g>
     <g id="text_44">
      <!-- 5 -->
      <g transform="translate(897.9575 318.077812) scale(0.14 -0.14)">
       <use xlink:href="#DejaVuSans-35"/>
      </g>
     </g>
    </g>
    <g id="xtick_18">
     <g id="line2d_48">
      <g>
       <use xlink:href="#macc77c1896" x="955.0525" y="303.94" style="stroke: #000000; stroke-width: 0.8"/>
      </g>
     </g>
     <g id="text_45">
      <!-- 10 -->
      <g transform="translate(946.145 318.077812) scale(0.14 -0.14)">
       <use xlink:href="#DejaVuSans-31"/>
       <use xlink:href="#DejaVuSans-30" x="63.623047"/>
      </g>
     </g>
    </g>
    <g id="xtick_19">
     <g id="line2d_49">
      <g>
       <use xlink:href="#macc77c1896" x="1007.69375" y="303.94" style="stroke: #000000; stroke-width: 0.8"/>
      </g>
     </g>
     <g id="text_46">
      <!-- 15 -->
      <g transform="translate(998.78625 318.077812) scale(0.14 -0.14)">
       <use xlink:href="#DejaVuSans-31"/>
       <use xlink:href="#DejaVuSans-35" x="63.623047"/>
      </g>
     </g>
    </g>
    <g id="xtick_20">
     <g id="line2d_50">
      <g>
       <use xlink:href="#macc77c1896" x="1060.335" y="303.94" style="stroke: #000000; stroke-width: 0.8"/>
      </g>
     </g>
     <g id="text_47">
      <!-- 20 -->
      <g transform="translate(1051.4275 318.077812) scale(0.14 -0.14)">
       <use xlink:href="#DejaVuSans-32"/>
       <use xlink:href="#DejaVuSans-30" x="63.623047"/>
      </g>
     </g>
    </g>
   </g>
   <g id="matplotlib.axis_8">
    <g id="ytick_19">
     <g id="line2d_51">
      <g>
       <use xlink:href="#m8a00bbde48" x="849.77" y="303.94" style="stroke: #000000; stroke-width: 0.8"/>
      </g>
     </g>
     <g id="text_48">
      <!-- 0 -->
      <g transform="translate(837.3625 309.258906) scale(0.14 -0.14)">
       <use xlink:href="#DejaVuSans-30"/>
      </g>
     </g>
    </g>
    <g id="ytick_20">
     <g id="line2d_52">
      <g>
       <use xlink:href="#m8a00bbde48" x="849.77" y="249.248" style="stroke: #000000; stroke-width: 0.8"/>
      </g>
     </g>
     <g id="text_49">
      <!-- 20 -->
      <g transform="translate(828.455 254.566906) scale(0.14 -0.14)">
       <use xlink:href="#DejaVuSans-32"/>
       <use xlink:href="#DejaVuSans-30" x="63.623047"/>
      </g>
     </g>
    </g>
    <g id="ytick_21">
     <g id="line2d_53">
      <g>
       <use xlink:href="#m8a00bbde48" x="849.77" y="194.556" style="stroke: #000000; stroke-width: 0.8"/>
      </g>
     </g>
     <g id="text_50">
      <!-- 40 -->
      <g transform="translate(828.455 199.874906) scale(0.14 -0.14)">
       <use xlink:href="#DejaVuSans-34"/>
       <use xlink:href="#DejaVuSans-30" x="63.623047"/>
      </g>
     </g>
    </g>
    <g id="ytick_22">
     <g id="line2d_54">
      <g>
       <use xlink:href="#m8a00bbde48" x="849.77" y="139.864" style="stroke: #000000; stroke-width: 0.8"/>
      </g>
     </g>
     <g id="text_51">
      <!-- 60 -->
      <g transform="translate(828.455 145.182906) scale(0.14 -0.14)">
       <use xlink:href="#DejaVuSans-36"/>
       <use xlink:href="#DejaVuSans-30" x="63.623047"/>
      </g>
     </g>
    </g>
    <g id="ytick_23">
     <g id="line2d_55">
      <g>
       <use xlink:href="#m8a00bbde48" x="849.77" y="85.172" style="stroke: #000000; stroke-width: 0.8"/>
      </g>
     </g>
     <g id="text_52">
      <!-- 80 -->
      <g transform="translate(828.455 90.490906) scale(0.14 -0.14)">
       <use xlink:href="#DejaVuSans-38"/>
       <use xlink:href="#DejaVuSans-30" x="63.623047"/>
      </g>
     </g>
    </g>
    <g id="ytick_24">
     <g id="line2d_56">
      <g>
       <use xlink:href="#m8a00bbde48" x="849.77" y="30.48" style="stroke: #000000; stroke-width: 0.8"/>
      </g>
     </g>
     <g id="text_53">
      <!-- 100 -->
      <g transform="translate(819.5475 35.798906) scale(0.14 -0.14)">
       <use xlink:href="#DejaVuSans-31"/>
       <use xlink:href="#DejaVuSans-30" x="63.623047"/>
       <use xlink:href="#DejaVuSans-30" x="127.246094"/>
      </g>
     </g>
    </g>
   </g>
   <g id="line2d_57">
    <path d="M 849.77 217.044213 
L 860.29825 210.737611 
L 870.8265 195.972771 
L 881.35475 180.881513 
L 891.883 171.747324 
L 902.41125 163.385013 
L 912.9395 157.61334 
L 923.46775 154.544325 
L 933.996 153.260476 
L 944.52425 152.15243 
L 955.0525 142.549926 
L 965.58075 128.66688 
L 976.109 121.923428 
L 986.63725 118.405785 
L 997.1655 116.410099 
L 1007.69375 105.653593 
L 1018.222 96.556619 
L 1028.75025 96.115453 
L 1039.2785 95.765116 
L 1049.80675 89.11206 
" clip-path="url(#p16298053a0)" style="fill: none; stroke: #a50026; stroke-width: 4; stroke-linecap: square"/>
   </g>
   <g id="line2d_58">
    <path d="M 849.77 208.192189 
L 860.29825 153.876666 
L 870.8265 152.373414 
L 881.35475 130.743641 
L 891.883 122.634033 
L 902.41125 117.835723 
L 912.9395 106.876661 
L 923.46775 106.858931 
L 933.996 103.115102 
L 944.52425 87.26509 
L 955.0525 87.26509 
L 965.58075 75.608192 
L 976.109 70.65635 
L 986.63725 67.541295 
L 997.1655 67.298848 
L 1007.69375 66.920066 
L 1018.222 66.559366 
L 1028.75025 63.268109 
L 1039.2785 60.107398 
L 1049.80675 60.107398 
" clip-path="url(#p16298053a0)" style="fill: none; stroke: #313695; stroke-width: 4; stroke-linecap: square"/>
   </g>
   <g id="patch_21">
    <path d="M 849.77 303.94 
L 849.77 30.48 
" style="fill: none; stroke: #000000; stroke-width: 0.8; stroke-linejoin: miter; stroke-linecap: square"/>
   </g>
   <g id="patch_22">
    <path d="M 1060.335 303.94 
L 1060.335 30.48 
" style="fill: none; stroke: #000000; stroke-width: 0.8; stroke-linejoin: miter; stroke-linecap: square"/>
   </g>
   <g id="patch_23">
    <path d="M 849.77 303.94 
L 1060.335 303.94 
" style="fill: none; stroke: #000000; stroke-width: 0.8; stroke-linejoin: miter; stroke-linecap: square"/>
   </g>
   <g id="patch_24">
    <path d="M 849.77 30.48 
L 1060.335 30.48 
" style="fill: none; stroke: #000000; stroke-width: 0.8; stroke-linejoin: miter; stroke-linecap: square"/>
   </g>
   <g id="text_54">
    <!-- Aux. SR4 -->
    <g transform="translate(914.45125 24.48) scale(0.18 -0.18)">
     <use xlink:href="#DejaVuSans-41"/>
     <use xlink:href="#DejaVuSans-75" x="68.408203"/>
     <use xlink:href="#DejaVuSans-78" x="131.787109"/>
     <use xlink:href="#DejaVuSans-2e" x="190.966797"/>
     <use xlink:href="#DejaVuSans-20" x="222.753906"/>
     <use xlink:href="#DejaVuSans-53" x="254.541016"/>
     <use xlink:href="#DejaVuSans-52" x="318.017578"/>
     <use xlink:href="#DejaVuSans-34" x="387.5"/>
    </g>
   </g>
   <g id="legend_4">
    <g id="patch_25">
     <path d="M 858.17 75.3075 
L 931.7225 75.3075 
Q 934.1225 75.3075 934.1225 72.9075 
L 934.1225 38.88 
Q 934.1225 36.48 931.7225 36.48 
L 858.17 36.48 
Q 855.77 36.48 855.77 38.88 
L 855.77 72.9075 
Q 855.77 75.3075 858.17 75.3075 
L 858.17 75.3075 
z
" style="fill: none; opacity: 0"/>
    </g>
    <g id="line2d_59">
     <path d="M 860.57 46.198125 
L 872.57 46.198125 
L 884.57 46.198125 
" style="fill: none; stroke: #a50026; stroke-width: 4; stroke-linecap: square"/>
    </g>
    <g id="text_55">
     <!-- STBO -->
     <g transform="translate(894.17 50.398125) scale(0.12 -0.12)">
      <use xlink:href="#DejaVuSans-53"/>
      <use xlink:href="#DejaVuSans-54" x="63.476562"/>
      <use xlink:href="#DejaVuSans-42" x="124.560547"/>
      <use xlink:href="#DejaVuSans-4f" x="191.414062"/>
     </g>
    </g>
    <g id="line2d_60">
     <path d="M 860.57 63.811875 
L 872.57 63.811875 
L 884.57 63.811875 
" style="fill: none; stroke: #313695; stroke-width: 4; stroke-linecap: square"/>
    </g>
    <g id="text_56">
     <!-- MTBO -->
     <g transform="translate(894.17 68.011875) scale(0.12 -0.12)">
      <use xlink:href="#DejaVuSans-4d"/>
      <use xlink:href="#DejaVuSans-54" x="86.279297"/>
      <use xlink:href="#DejaVuSans-42" x="147.363281"/>
      <use xlink:href="#DejaVuSans-4f" x="214.216797"/>
     </g>
    </g>
   </g>
  </g>
  <g id="text_57">
   <!-- Number of experiments -->
   <g transform="translate(433.065938 352.656563) scale(0.18 -0.18)">
    <defs>
     <path id="DejaVuSans-4e" d="M 628 4666 
L 1478 4666 
L 3547 763 
L 3547 4666 
L 4159 4666 
L 4159 0 
L 3309 0 
L 1241 3903 
L 1241 0 
L 628 0 
L 628 4666 
z
" transform="scale(0.015625)"/>
     <path id="DejaVuSans-6d" d="M 3328 2828 
Q 3544 3216 3844 3400 
Q 4144 3584 4550 3584 
Q 5097 3584 5394 3201 
Q 5691 2819 5691 2113 
L 5691 0 
L 5113 0 
L 5113 2094 
Q 5113 2597 4934 2840 
Q 4756 3084 4391 3084 
Q 3944 3084 3684 2787 
Q 3425 2491 3425 1978 
L 3425 0 
L 2847 0 
L 2847 2094 
Q 2847 2600 2669 2842 
Q 2491 3084 2119 3084 
Q 1678 3084 1418 2786 
Q 1159 2488 1159 1978 
L 1159 0 
L 581 0 
L 581 3500 
L 1159 3500 
L 1159 2956 
Q 1356 3278 1631 3431 
Q 1906 3584 2284 3584 
Q 2666 3584 2933 3390 
Q 3200 3197 3328 2828 
z
" transform="scale(0.015625)"/>
     <path id="DejaVuSans-62" d="M 3116 1747 
Q 3116 2381 2855 2742 
Q 2594 3103 2138 3103 
Q 1681 3103 1420 2742 
Q 1159 2381 1159 1747 
Q 1159 1113 1420 752 
Q 1681 391 2138 391 
Q 2594 391 2855 752 
Q 3116 1113 3116 1747 
z
M 1159 2969 
Q 1341 3281 1617 3432 
Q 1894 3584 2278 3584 
Q 2916 3584 3314 3078 
Q 3713 2572 3713 1747 
Q 3713 922 3314 415 
Q 2916 -91 2278 -91 
Q 1894 -91 1617 61 
Q 1341 213 1159 525 
L 1159 0 
L 581 0 
L 581 4863 
L 1159 4863 
L 1159 2969 
z
" transform="scale(0.015625)"/>
     <path id="DejaVuSans-65" d="M 3597 1894 
L 3597 1613 
L 953 1613 
Q 991 1019 1311 708 
Q 1631 397 2203 397 
Q 2534 397 2845 478 
Q 3156 559 3463 722 
L 3463 178 
Q 3153 47 2828 -22 
Q 2503 -91 2169 -91 
Q 1331 -91 842 396 
Q 353 884 353 1716 
Q 353 2575 817 3079 
Q 1281 3584 2069 3584 
Q 2775 3584 3186 3129 
Q 3597 2675 3597 1894 
z
M 3022 2063 
Q 3016 2534 2758 2815 
Q 2500 3097 2075 3097 
Q 1594 3097 1305 2825 
Q 1016 2553 972 2059 
L 3022 2063 
z
" transform="scale(0.015625)"/>
     <path id="DejaVuSans-72" d="M 2631 2963 
Q 2534 3019 2420 3045 
Q 2306 3072 2169 3072 
Q 1681 3072 1420 2755 
Q 1159 2438 1159 1844 
L 1159 0 
L 581 0 
L 581 3500 
L 1159 3500 
L 1159 2956 
Q 1341 3275 1631 3429 
Q 1922 3584 2338 3584 
Q 2397 3584 2469 3576 
Q 2541 3569 2628 3553 
L 2631 2963 
z
" transform="scale(0.015625)"/>
     <path id="DejaVuSans-6f" d="M 1959 3097 
Q 1497 3097 1228 2736 
Q 959 2375 959 1747 
Q 959 1119 1226 758 
Q 1494 397 1959 397 
Q 2419 397 2687 759 
Q 2956 1122 2956 1747 
Q 2956 2369 2687 2733 
Q 2419 3097 1959 3097 
z
M 1959 3584 
Q 2709 3584 3137 3096 
Q 3566 2609 3566 1747 
Q 3566 888 3137 398 
Q 2709 -91 1959 -91 
Q 1206 -91 779 398 
Q 353 888 353 1747 
Q 353 2609 779 3096 
Q 1206 3584 1959 3584 
z
" transform="scale(0.015625)"/>
     <path id="DejaVuSans-66" d="M 2375 4863 
L 2375 4384 
L 1825 4384 
Q 1516 4384 1395 4259 
Q 1275 4134 1275 3809 
L 1275 3500 
L 2222 3500 
L 2222 3053 
L 1275 3053 
L 1275 0 
L 697 0 
L 697 3053 
L 147 3053 
L 147 3500 
L 697 3500 
L 697 3744 
Q 697 4328 969 4595 
Q 1241 4863 1831 4863 
L 2375 4863 
z
" transform="scale(0.015625)"/>
     <path id="DejaVuSans-70" d="M 1159 525 
L 1159 -1331 
L 581 -1331 
L 581 3500 
L 1159 3500 
L 1159 2969 
Q 1341 3281 1617 3432 
Q 1894 3584 2278 3584 
Q 2916 3584 3314 3078 
Q 3713 2572 3713 1747 
Q 3713 922 3314 415 
Q 2916 -91 2278 -91 
Q 1894 -91 1617 61 
Q 1341 213 1159 525 
z
M 3116 1747 
Q 3116 2381 2855 2742 
Q 2594 3103 2138 3103 
Q 1681 3103 1420 2742 
Q 1159 2381 1159 1747 
Q 1159 1113 1420 752 
Q 1681 391 2138 391 
Q 2594 391 2855 752 
Q 3116 1113 3116 1747 
z
" transform="scale(0.015625)"/>
     <path id="DejaVuSans-69" d="M 603 3500 
L 1178 3500 
L 1178 0 
L 603 0 
L 603 3500 
z
M 603 4863 
L 1178 4863 
L 1178 4134 
L 603 4134 
L 603 4863 
z
" transform="scale(0.015625)"/>
     <path id="DejaVuSans-6e" d="M 3513 2113 
L 3513 0 
L 2938 0 
L 2938 2094 
Q 2938 2591 2744 2837 
Q 2550 3084 2163 3084 
Q 1697 3084 1428 2787 
Q 1159 2491 1159 1978 
L 1159 0 
L 581 0 
L 581 3500 
L 1159 3500 
L 1159 2956 
Q 1366 3272 1645 3428 
Q 1925 3584 2291 3584 
Q 2894 3584 3203 3211 
Q 3513 2838 3513 2113 
z
" transform="scale(0.015625)"/>
     <path id="DejaVuSans-74" d="M 1172 4494 
L 1172 3500 
L 2356 3500 
L 2356 3053 
L 1172 3053 
L 1172 1153 
Q 1172 725 1289 603 
Q 1406 481 1766 481 
L 2356 481 
L 2356 0 
L 1766 0 
Q 1100 0 847 248 
Q 594 497 594 1153 
L 594 3053 
L 172 3053 
L 172 3500 
L 594 3500 
L 594 4494 
L 1172 4494 
z
" transform="scale(0.015625)"/>
     <path id="DejaVuSans-73" d="M 2834 3397 
L 2834 2853 
Q 2591 2978 2328 3040 
Q 2066 3103 1784 3103 
Q 1356 3103 1142 2972 
Q 928 2841 928 2578 
Q 928 2378 1081 2264 
Q 1234 2150 1697 2047 
L 1894 2003 
Q 2506 1872 2764 1633 
Q 3022 1394 3022 966 
Q 3022 478 2636 193 
Q 2250 -91 1575 -91 
Q 1294 -91 989 -36 
Q 684 19 347 128 
L 347 722 
Q 666 556 975 473 
Q 1284 391 1588 391 
Q 1994 391 2212 530 
Q 2431 669 2431 922 
Q 2431 1156 2273 1281 
Q 2116 1406 1581 1522 
L 1381 1569 
Q 847 1681 609 1914 
Q 372 2147 372 2553 
Q 372 3047 722 3315 
Q 1072 3584 1716 3584 
Q 2034 3584 2315 3537 
Q 2597 3491 2834 3397 
z
" transform="scale(0.015625)"/>
    </defs>
    <use xlink:href="#DejaVuSans-4e"/>
    <use xlink:href="#DejaVuSans-75" x="74.804688"/>
    <use xlink:href="#DejaVuSans-6d" x="138.183594"/>
    <use xlink:href="#DejaVuSans-62" x="235.595703"/>
    <use xlink:href="#DejaVuSans-65" x="299.072266"/>
    <use xlink:href="#DejaVuSans-72" x="360.595703"/>
    <use xlink:href="#DejaVuSans-20" x="401.708984"/>
    <use xlink:href="#DejaVuSans-6f" x="433.496094"/>
    <use xlink:href="#DejaVuSans-66" x="494.677734"/>
    <use xlink:href="#DejaVuSans-20" x="529.882812"/>
    <use xlink:href="#DejaVuSans-65" x="561.669922"/>
    <use xlink:href="#DejaVuSans-78" x="621.443359"/>
    <use xlink:href="#DejaVuSans-70" x="680.623047"/>
    <use xlink:href="#DejaVuSans-65" x="744.099609"/>
    <use xlink:href="#DejaVuSans-72" x="805.623047"/>
    <use xlink:href="#DejaVuSans-69" x="846.736328"/>
    <use xlink:href="#DejaVuSans-6d" x="874.519531"/>
    <use xlink:href="#DejaVuSans-65" x="971.931641"/>
    <use xlink:href="#DejaVuSans-6e" x="1033.455078"/>
    <use xlink:href="#DejaVuSans-74" x="1096.833984"/>
    <use xlink:href="#DejaVuSans-73" x="1136.042969"/>
   </g>
  </g>
  <g id="text_58">
   <!-- Best Yield (%) -->
   <g transform="translate(35.277187 242.647031) rotate(-90) scale(0.18 -0.18)">
    <defs>
     <path id="DejaVuSans-59" d="M -13 4666 
L 666 4666 
L 1959 2747 
L 3244 4666 
L 3922 4666 
L 2272 2222 
L 2272 0 
L 1638 0 
L 1638 2222 
L -13 4666 
z
" transform="scale(0.015625)"/>
     <path id="DejaVuSans-6c" d="M 603 4863 
L 1178 4863 
L 1178 0 
L 603 0 
L 603 4863 
z
" transform="scale(0.015625)"/>
     <path id="DejaVuSans-64" d="M 2906 2969 
L 2906 4863 
L 3481 4863 
L 3481 0 
L 2906 0 
L 2906 525 
Q 2725 213 2448 61 
Q 2172 -91 1784 -91 
Q 1150 -91 751 415 
Q 353 922 353 1747 
Q 353 2572 751 3078 
Q 1150 3584 1784 3584 
Q 2172 3584 2448 3432 
Q 2725 3281 2906 2969 
z
M 947 1747 
Q 947 1113 1208 752 
Q 1469 391 1925 391 
Q 2381 391 2643 752 
Q 2906 1113 2906 1747 
Q 2906 2381 2643 2742 
Q 2381 3103 1925 3103 
Q 1469 3103 1208 2742 
Q 947 2381 947 1747 
z
" transform="scale(0.015625)"/>
     <path id="DejaVuSans-28" d="M 1984 4856 
Q 1566 4138 1362 3434 
Q 1159 2731 1159 2009 
Q 1159 1288 1364 580 
Q 1569 -128 1984 -844 
L 1484 -844 
Q 1016 -109 783 600 
Q 550 1309 550 2009 
Q 550 2706 781 3412 
Q 1013 4119 1484 4856 
L 1984 4856 
z
" transform="scale(0.015625)"/>
     <path id="DejaVuSans-25" d="M 4653 2053 
Q 4381 2053 4226 1822 
Q 4072 1591 4072 1178 
Q 4072 772 4226 539 
Q 4381 306 4653 306 
Q 4919 306 5073 539 
Q 5228 772 5228 1178 
Q 5228 1588 5073 1820 
Q 4919 2053 4653 2053 
z
M 4653 2450 
Q 5147 2450 5437 2106 
Q 5728 1763 5728 1178 
Q 5728 594 5436 251 
Q 5144 -91 4653 -91 
Q 4153 -91 3862 251 
Q 3572 594 3572 1178 
Q 3572 1766 3864 2108 
Q 4156 2450 4653 2450 
z
M 1428 4353 
Q 1159 4353 1004 4120 
Q 850 3888 850 3481 
Q 850 3069 1003 2837 
Q 1156 2606 1428 2606 
Q 1700 2606 1854 2837 
Q 2009 3069 2009 3481 
Q 2009 3884 1853 4118 
Q 1697 4353 1428 4353 
z
M 4250 4750 
L 4750 4750 
L 1831 -91 
L 1331 -91 
L 4250 4750 
z
M 1428 4750 
Q 1922 4750 2215 4408 
Q 2509 4066 2509 3481 
Q 2509 2891 2217 2550 
Q 1925 2209 1428 2209 
Q 931 2209 642 2551 
Q 353 2894 353 3481 
Q 353 4063 643 4406 
Q 934 4750 1428 4750 
z
" transform="scale(0.015625)"/>
     <path id="DejaVuSans-29" d="M 513 4856 
L 1013 4856 
Q 1481 4119 1714 3412 
Q 1947 2706 1947 2009 
Q 1947 1309 1714 600 
Q 1481 -109 1013 -844 
L 513 -844 
Q 928 -128 1133 580 
Q 1338 1288 1338 2009 
Q 1338 2731 1133 3434 
Q 928 4138 513 4856 
z
" transform="scale(0.015625)"/>
    </defs>
    <use xlink:href="#DejaVuSans-42"/>
    <use xlink:href="#DejaVuSans-65" x="68.603516"/>
    <use xlink:href="#DejaVuSans-73" x="130.126953"/>
    <use xlink:href="#DejaVuSans-74" x="182.226562"/>
    <use xlink:href="#DejaVuSans-20" x="221.435547"/>
    <use xlink:href="#DejaVuSans-59" x="253.222656"/>
    <use xlink:href="#DejaVuSans-69" x="310.681641"/>
    <use xlink:href="#DejaVuSans-65" x="338.464844"/>
    <use xlink:href="#DejaVuSans-6c" x="399.988281"/>
    <use xlink:href="#DejaVuSans-64" x="427.771484"/>
    <use xlink:href="#DejaVuSans-20" x="491.248047"/>
    <use xlink:href="#DejaVuSans-28" x="523.035156"/>
    <use xlink:href="#DejaVuSans-25" x="562.048828"/>
    <use xlink:href="#DejaVuSans-29" x="657.068359"/>
   </g>
  </g>
 </g>
 <defs>
  <clipPath id="p6b1d973e8f">
   <rect x="68.93" y="30.48" width="210.565" height="273.46"/>
  </clipPath>
  <clipPath id="pf5c4931e98">
   <rect x="329.21" y="30.48" width="210.565" height="273.46"/>
  </clipPath>
  <clipPath id="p8eb2d11f07">
   <rect x="589.49" y="30.48" width="210.565" height="273.46"/>
  </clipPath>
  <clipPath id="p16298053a0">
   <rect x="849.77" y="30.48" width="210.565" height="273.46"/>
  </clipPath>
 </defs>
</svg>
